#!OML:ASF H:\ManfredObstacles\Project 1\Capture day 2\Session 1\male.ASF
:FULLY-SPECIFIED
:DEGREES
535
root 1.19763 14.8725 -14.7563 -146.904 4.91849 -183.173
lowerback 22.8126 -1.30603 -5.57438
upperback 7.72344 -1.45138 1.50767
thorax -3.99212 -0.235091 5.14809
lowerneck -30.2659 2.88973 3.68151
upperneck 17.2667 3.33844 -3.80003
head 10.5803 1.27963 -1.4007
rclavicle -5.89894e-014 3.73715e-014
rhumerus -36.5421 4.05525 -75.7948
rradius 52.3325
rwrist 15.0476
rhand -12.1851 -5.47853
rfingers 7.12502
rthumb 13.8786 -34.9954
lclavicle -5.89894e-014 3.73715e-014
lhumerus -1.13222 -17.5526 78.8938
lradius 89.611
lwrist -30.7262
lhand -29.0312 8.57408
lfingers 7.12502
lthumb -2.38189 38.5405
rfemur -71.9916 1.91228 17.0712
rtibia 96.1745
rfoot -3.52544 -19.8021
rtoes -28.1101
lfemur -38.9928 -3.4181 -28.0712
ltibia 56.9459
lfoot 3.3625 26.2032
ltoes -15.0544
536
root 1.20591 15.0043 -15.0092 -147.352 4.84709 -183.106
lowerback 22.5822 -1.54551 -5.37177
upperback 7.57567 -1.74567 1.62426
thorax -4.00728 -0.390706 5.22792
lowerneck -30.2109 3.11902 3.87106
upperneck 17.3322 3.6575 -4.13008
head 10.6206 1.39432 -1.49662
rclavicle 7.49418e-014 -1.38652e-014
rhumerus -38.9487 4.45509 -75.9013
rradius 53.4672
rwrist 14.0675
rhand -12.1959 -5.76797
rfingers 7.12502
rthumb 13.8682 -35.2856
lclavicle 7.49418e-014 -1.38652e-014
lhumerus -2.15013 -17.689 78.7236
lradius 90.2683
lwrist -30.593
lhand -28.7545 8.53093
lfingers 7.12502
lthumb -2.11457 38.5002
rfemur -72.6124 2.12718 16.9494
rtibia 93.479
rfoot -3.50012 -20.1939
rtoes -27.919
lfemur -36.38 -3.58484 -27.9368
ltibia 54.2304
lfoot 4.68158 24.6792
ltoes -14.4477
537
root 1.21495 15.1363 -15.2668 -147.705 4.73357 -183.033
lowerback 22.2734 -1.80522 -5.13144
upperback 7.39872 -2.06364 1.76138
thorax -4.01277 -0.561325 5.31055
lowerneck -30.1105 3.36001 4.0701
upperneck 17.3874 4.00304 -4.50718
head 10.6545 1.51628 -1.60672
rclavicle 1.78906e-015 3.18055e-015
rhumerus -41.2594 4.82755 -75.9741
rradius 54.583
rwrist 13.1252
rhand -12.2035 -5.9913
rfingers 7.12502
rthumb 13.8609 -35.5094
lclavicle 1.78906e-015 3.18055e-015
lhumerus -3.26417 -17.8288 78.5789
lradius 90.9031
lwrist -30.5013
lhand -28.4617 8.48336
lfingers 7.12502
lthumb -1.83184 38.4552
rfemur -73.0727 2.31289 16.7898
rtibia 90.5015
rfoot -3.41189 -20.4985
rtoes -27.5168
lfemur -33.906 -3.77747 -27.7798
ltibia 51.5214
lfoot 6.08351 22.9868
ltoes -13.799
538
root 1.2253 15.2663 -15.5276 -147.981 4.59992 -182.964
lowerback 21.9049 -2.07447 -4.88617
upperback 7.19758 -2.39795 1.91115
thorax -4.01149 -0.742687 5.404
lowerneck -30.0159 3.61109 4.27248
upperneck 17.4831 4.36905 -4.90455
head 10.7084 1.64482 -1.72127
rclavicle -5.56597e-015 6.85807e-015
rhumerus -43.4561 5.16683 -76.0156
rradius 55.6839
rwrist 12.1986
rhand -12.1852 -6.14187
rfingers 7.12502
rthumb 13.8786 -35.6588
lclavicle -5.56597e-015 6.85807e-015
lhumerus -4.46543 -17.9823 78.4566
lradius 91.5205
lwrist -30.3893
lhand -28.1654 8.41229
lfingers 7.12502
lthumb -1.54563 38.3864
rfemur -73.3691 2.48693 16.5782
rtibia 87.2852
rfoot -3.20832 -20.6655
rtoes -27.0336
lfemur -31.5763 -3.95513 -27.6215
ltibia 48.8634
lfoot 7.5711 21.1597
ltoes -13.0989
539
root 1.23653 15.3937 -15.793 -148.19 4.44613 -182.878
lowerback 21.4526 -2.35279 -4.60759
upperback 6.97853 -2.74138 2.06675
thorax -3.98687 -0.931452 5.48056
lowerneck -29.887 3.87003 4.4947
upperneck 17.5864 4.74368 -5.3113
head 10.7634 1.77802 -1.84104
rclavicle -5.4467e-014 3.16068e-014
rhumerus -45.5561 5.46828 -76.0316
rradius 56.7615
rwrist 11.419
rhand -12.2139 -6.1783
rfingers 7.12502
rthumb 13.8509 -35.6971
lclavicle -5.4467e-014 3.16068e-014
lhumerus -5.75175 -18.1638 78.3554
lradius 92.1201
lwrist -30.2695
lhand -27.8771 8.33227
lfingers 7.12502
lthumb -1.26722 38.3083
rfemur -73.476 2.66199 16.3406
rtibia 83.8608
rfoot -2.88 -20.6677
rtoes -26.5777
lfemur -29.3791 -4.07936 -27.4488
ltibia 46.2837
lfoot 9.11751 19.2654
ltoes -12.3339
540
root 1.24913 15.5168 -16.062 -148.368 4.29185 -182.777
lowerback 20.9424 -2.62554 -4.30713
upperback 6.76284 -3.07452 2.20941
thorax -3.93154 -1.11651 5.52138
lowerneck -29.7714 4.12915 4.74483
upperneck 17.731 5.10533 -5.69792
head 10.8382 1.90935 -1.96032
rclavicle 3.77691e-014 -2.99171e-014
rhumerus -47.5401 5.68979 -76.0269
rradius 57.8321
rwrist 10.8081
rhand -12.2735 -6.12605
rfingers 7.12502
rthumb 13.7935 -35.6488
lclavicle 3.77691e-014 -2.99171e-014
lhumerus -7.06967 -18.4059 78.2547
lradius 92.6863
lwrist -30.1091
lhand -27.6 8.23828
lfingers 7.12502
lthumb -0.999614 38.2157
rfemur -73.3711 2.85773 16.0781
rtibia 80.2713
rfoot -2.45451 -20.4979
rtoes -26.2247
lfemur -27.2891 -4.1192 -27.2687
ltibia 43.8058
lfoot 10.7381 17.3463
ltoes -11.4708
541
root 1.26306 15.6347 -16.3351 -148.543 4.13084 -182.659
lowerback 20.3799 -2.89309 -3.97474
upperback 6.55783 -3.39549 2.33489
thorax -3.84193 -1.29633 5.51519
lowerneck -29.6618 4.37817 5.01221
upperneck 17.9069 5.44076 -6.04952
head 10.9259 2.03416 -2.07436
rclavicle -1.33186e-014 3.63776e-014
rhumerus -49.4189 5.83133 -76.0053
rradius 58.902
rwrist 10.3771
rhand -12.3767 -5.97446
rfingers 7.12502
rthumb 13.694 -35.5039
lclavicle -1.33186e-014 3.63776e-014
lhumerus -8.41351 -18.7166 78.1573
lradius 93.2097
lwrist -29.9313
lhand -27.3318 8.15043
lfingers 7.12502
lthumb -0.740582 38.1289
rfemur -73.0267 3.06775 15.813
rtibia 76.5642
rfoot -1.95525 -20.1751
rtoes -26.0557
lfemur -25.275 -4.07611 -27.0767
ltibia 41.4527
lfoot 12.3981 15.4662
ltoes -10.4845
542
root 1.27794 15.7464 -16.6131 -148.726 3.95857 -182.501
lowerback 19.7489 -3.15887 -3.58564
upperback 6.38197 -3.70249 2.43884
thorax -3.69255 -1.4699 5.44068
lowerneck -29.5666 4.61758 5.28943
upperneck 18.11 5.74644 -6.34119
head 11.0248 2.15336 -2.17336
rclavicle -1.05356e-014 -3.10104e-014
rhumerus -51.1761 5.91631 -75.9927
rradius 59.9754
rwrist 10.0771
rhand -12.5605 -5.73464
rfingers 7.12502
rthumb 13.5168 -35.276
lclavicle -1.05356e-014 -3.10104e-014
lhumerus -9.75121 -19.0812 78.0509
lradius 93.6851
lwrist -29.7432
lhand -27.0469 8.05579
lfingers 7.12502
lthumb -0.465352 38.035
rfemur -72.4355 3.28649 15.5908
rtibia 72.7936
rfoot -1.45876 -19.7205
rtoes -26.0252
lfemur -23.3196 -3.96507 -26.8456
ltibia 39.2537
lfoot 14.1244 13.6494
ltoes -9.4335
543
root 1.29368 15.8512 -16.8944 -148.932 3.76798 -182.317
lowerback 19.0901 -3.42249 -3.15867
upperback 6.2154 -4.0029 2.53111
thorax -3.52362 -1.63981 5.32393
lowerneck -29.4618 4.84714 5.56452
upperneck 18.3608 6.0292 -6.57161
head 11.138 2.26959 -2.25394
rclavicle 9.02482e-014 -1.66979e-014
rhumerus -52.8307 6.00061 -75.9928
rradius 61.0714
rwrist 9.8654
rhand -12.7842 -5.47065
rfingers 7.12502
rthumb 13.3012 -35.0262
lclavicle 9.02482e-014 -1.66979e-014
lhumerus -11.0992 -19.4962 77.9553
lradius 94.095
lwrist -29.5375
lhand -26.7477 7.95599
lfingers 7.12502
lthumb -0.176441 37.9357
rfemur -71.6157 3.49856 15.4186
rtibia 69.0258
rfoot -1.03897 -19.1725
rtoes -26.1298
lfemur -21.431 -3.84411 -26.5767
ltibia 37.2498
lfoot 15.921 11.9376
ltoes -8.27678
544
root 1.30972 15.9478 -17.1784 -149.158 3.56399 -182.115
lowerback 18.4023 -3.68241 -2.70854
upperback 6.05439 -4.29921 2.61381
thorax -3.3373 -1.8074 5.1763
lowerneck -29.3764 5.06421 5.8117
upperneck 18.6791 6.29315 -6.72877
head 11.2764 2.38373 -2.3066
rclavicle -5.1684e-014 4.57205e-014
rhumerus -54.3751 6.12113 -76.0241
rradius 62.1968
rwrist 9.6311
rhand -13.0689 -5.18996
rfingers 7.12502
rthumb 13.0268 -34.7632
lclavicle -5.1684e-014 4.57205e-014
lhumerus -12.4618 -19.9323 77.8902
lradius 94.455
lwrist -29.3285
lhand -26.4263 7.83762
lfingers 7.12502
lthumb 0.134034 37.8173
rfemur -70.6086 3.68101 15.3126
rtibia 65.3383
rfoot -0.702186 -18.5488
rtoes -26.3375
lfemur -19.635 -3.77347 -26.2779
ltibia 35.4907
lfoot 17.827 10.3508
ltoes -6.98266
545
root 1.32585 16.0351 -17.4644 -149.398 3.35195 -181.905
lowerback 17.679 -3.93231 -2.239
upperback 5.88837 -4.58679 2.68391
thorax -3.14235 -1.97058 4.9959
lowerneck -29.2713 5.26029 6.02588
upperneck 19.0386 6.53068 -6.81769
head 11.4226 2.4927 -2.3337
rclavicle -7.27552e-014 -1.39149e-015
rhumerus -55.8102 6.29986 -76.1131
rradius 63.3404
rwrist 9.30842
rhand -13.4338 -4.94542
rfingers 7.12502
rthumb 12.675 -34.5408
lclavicle -7.27552e-014 -1.39149e-015
lhumerus -13.8392 -20.4093 77.8644
lradius 94.7593
lwrist -29.1182
lhand -26.0653 7.71522
lfingers 7.12502
lthumb 0.482677 37.6944
rfemur -69.4483 3.82253 15.2775
rtibia 61.8085
rfoot -0.454276 -17.8713
rtoes -26.5476
lfemur -17.9685 -3.79915 -25.9643
ltibia 34.0306
lfoot 19.8449 8.91747
ltoes -5.62632
546
root 1.34534 16.1104 -17.7516 -149.668 3.21539 -181.752
lowerback 16.9341 -4.13693 -1.90689
upperback 5.71603 -4.84761 2.72599
thorax -2.93617 -2.12194 4.8527
lowerneck -29.1753 5.4407 6.21645
upperneck 19.4808 6.75081 -6.8527
head 11.5989 2.59861 -2.34037
rclavicle 2.54444e-014 3.57812e-015
rhumerus -57.117 6.54315 -76.2782
rradius 64.4939
rwrist 8.84608
rhand -13.8246 -4.79919
rfingers 7.12502
rthumb 12.2982 -34.4175
lclavicle 2.54444e-014 3.57812e-015
lhumerus -15.2363 -20.9154 77.8852
lradius 95.0076
lwrist -28.9041
lhand -25.6849 7.56331
lfingers 7.12502
lthumb 0.85003 37.5414
rfemur -68.1963 4.00034 15.2036
rtibia 58.5208
rfoot -0.228634 -17.1919
rtoes -26.8132
lfemur -16.4582 -3.90279 -25.7281
ltibia 32.9158
lfoot 21.941 7.66625
ltoes -4.21493
547
root 1.36801 16.1737 -18.0404 -149.97 3.14268 -181.665
lowerback 16.1623 -4.30242 -1.70345
upperback 5.54165 -5.08459 2.73979
thorax -2.71045 -2.26297 4.74148
lowerneck -29.0761 5.59541 6.36563
upperneck 19.9781 6.94822 -6.84054
head 11.7918 2.69782 -2.32696
rclavicle -5.88403e-014 2.74323e-014
rhumerus -58.2886 6.8376 -76.5224
rradius 65.6405
rwrist 8.34572
rhand -14.2644 -4.73548
rfingers 7.12502
rthumb 11.8741 -34.3788
lclavicle -5.88403e-014 2.74323e-014
lhumerus -16.6581 -21.4321 77.9798
lradius 95.2266
lwrist -28.7017
lhand -25.2384 7.38962
lfingers 7.12502
lthumb 1.28135 37.3655
rfemur -66.8741 4.1974 15.0953
rtibia 55.5461
rfoot 0.0714756 -16.5058
rtoes -27.0411
lfemur -15.1147 -4.07333 -25.5821
ltibia 32.1749
lfoot 24.0613 6.59212
ltoes -2.7285
548
root 1.39473 16.2243 -18.3299 -150.331 3.14942 -181.673
lowerback 15.3859 -4.42215 -1.67245
upperback 5.38009 -5.29025 2.71408
thorax -2.45761 -2.3896 4.6749
lowerneck -28.9833 5.73163 6.50775
upperneck 20.5166 7.1286 -6.82258
head 12.0018 2.79025 -2.31326
rclavicle -1.74931e-014 2.90226e-014
rhumerus -59.3066 7.14805 -76.8529
rradius 66.7803
rwrist 7.85596
rhand -14.7269 -4.80621
rfingers 7.12502
rthumb 11.4282 -34.4748
lclavicle -1.74931e-014 2.90226e-014
lhumerus -18.0866 -21.9454 78.1582
lradius 95.4144
lwrist -28.5251
lhand -24.7394 7.16967
lfingers 7.12502
lthumb 1.76322 37.1421
rfemur -65.4973 4.43844 14.9044
rtibia 52.9448
rfoot 0.465457 -15.8117
rtoes -27.3183
lfemur -13.9294 -4.27427 -25.5625
ltibia 31.8277
lfoot 26.1331 5.69339
ltoes -1.25394
